<svg xmlns="http://www.w3.org/2000/svg" width="28" height="28"><g fill="currentColor"><path d="m1.789 23 .859-.854.221-.228a27.271 27.271 0 0 0 2.412-2.953c.982-1.396 1.738-2.776 2.177-4.081 1.234-3.667 5.957-4.716 8.923-1.263 3.251 3.785-.037 9.38-5.379 9.38H1.791zM11 22c4.544 0 7.272-4.642 4.621-7.728-2.45-2.853-6.225-2.015-7.216.931-.474 1.408-1.273 2.869-2.307 4.337a28.32 28.32 0 0 1-1.882 2.383l-.068.078h6.853zM18.182 6.002l-1.419 1.286a2.386 2.386 0 0 0-.096 3.48l1.877 1.877a2.454 2.454 0 0 0 3.513-.045l5.65-5.874-.721-.693-5.65 5.874a1.456 1.456 0 0 1-2.086.031l-1.877-1.877a1.386 1.386 0 0 1 .061-2.032l1.419-1.286-.672-.741z"/></g></svg>