<svg xmlns="http://www.w3.org/2000/svg" width="28" height="28"><path fill="currentColor" d="M2.51 19.48a1.5 1.5 0 0 0 0 2.121l3.889 3.89a1.5 1.5 0 0 0 2.12 0L25.49 8.52a1.5 1.5 0 0 0 0-2.121l-3.889-3.89a1.5 1.5 0 0 0-2.12 0zm.707.707 2.12-2.121 1.769 1.768.707-.707-1.768-1.768 2.298-2.298 2.758 2.757.707-.707-2.758-2.757 2.298-2.299 1.768 1.768.707-.707-1.768-1.768 2.299-2.298 2.757 2.758.707-.707-2.757-2.758 2.298-2.298 1.768 1.768.707-.707-1.768-1.768 2.121-2.121a.5.5 0 0 1 .707 0l3.89 3.889a.5.5 0 0 1 0 .707L7.812 24.783a.5.5 0 0 1-.707 0l-3.89-3.889a.5.5 0 0 1 0-.707z"/></svg>